<svg xmlns="http://www.w3.org/2000/svg" width="595.95" height="350.96"><g transform="translate(-103.32 -163.52)"><rect width="595.95" height="350.96" x="103.32" y="163.53" fill="#f60" rx="16.72" ry="13.98"/><rect width="160.23" height="279.15" x="151.22" y="197.69" fill="none" stroke="#fff" stroke-dashoffset="32.13" stroke-linecap="round" stroke-linejoin="round" stroke-miterlimit="11.7" stroke-width="18.9" rx="18.9" ry="18.9"/><path stroke="#666" stroke-dashoffset="32.13" stroke-linecap="round" stroke-linejoin="round" stroke-miterlimit="11.7" stroke-width="21.92" d="M176.05 811.8h49.4v70q-11.6 3.8-23.4 5.6-11.8 1.8-26.8 1.8-22.2 0-37.4-8.8-15.2-9-23.2-25.4-7.8-16.6-7.8-39.2 0-22.4 8.8-38.8t25.2-25.4q16.6-9.2 40-9.2 12 0 22.6 2.2 10.8 2.2 20 6.2l-6.8 15.6q-7.6-3.4-17.2-5.8-9.4-2.4-19.6-2.4-25.6 0-40 15.4-14.2 15.4-14.2 42.2 0 17 5.4 30.2 5.6 13 17.4 20.4 11.8 7.2 31 7.2 9.4 0 16-1t12-2.4v-42.4h-31.4z" aria-label="G" style="shape-padding:.90503" transform="matrix(.8771 0 0 1.00886 86.59 -447.81)"/><path stroke="#e6e6e6" stroke-dashoffset="32.13" stroke-linecap="round" stroke-linejoin="round" stroke-miterlimit="11.7" stroke-width="11.77" d="M364.63 463.67q0 21.47-11.74 32.39-11.63 10.8-32.5 10.8h-23.61v-84.7h26.1q12.8 0 22.18 4.74 9.37 4.74 14.47 14 5.1 9.13 5.1 22.77zm-11.27.36q0-16.97-8.42-24.8-8.3-7.94-23.6-7.94h-13.89v66.43h11.51q34.4 0 34.4-33.7zm83.87 10.91q0 15.78-8.07 24.44-7.94 8.66-21.59 8.66-8.42 0-15.06-3.8-6.53-3.91-10.32-11.27-3.8-7.47-3.8-18.03 0-15.78 7.95-24.32 7.95-8.54 21.59-8.54 8.66 0 15.18 3.92 6.65 3.8 10.33 11.15 3.8 7.23 3.8 17.8zm-48.04 0q0 11.27 4.39 17.91 4.5 6.53 14.23 6.53 9.61 0 14.12-6.53 4.5-6.64 4.5-17.9 0-11.28-4.5-17.68-4.51-6.41-14.24-6.41-9.72 0-14.11 6.4-4.4 6.41-4.4 17.68zm119.81 0q0 15.78-8.07 24.44-7.94 8.66-21.59 8.66-8.42 0-15.06-3.8-6.53-3.91-10.32-11.27-3.8-7.47-3.8-18.03 0-15.78 7.95-24.32 7.95-8.54 21.59-8.54 8.66 0 15.18 3.92 6.65 3.8 10.32 11.15 3.8 7.23 3.8 17.8zm-48.04 0q0 11.27 4.39 17.91 4.5 6.53 14.23 6.53 9.6 0 14.12-6.53 4.5-6.64 4.5-17.9 0-11.28-4.5-17.68-4.51-6.41-14.24-6.41t-14.11 6.4q-4.4 6.41-4.4 17.68zm94.18-32.86c1.2 0 2.46.08 3.8.24 1.42.08 2.65.24 3.68.47l-1.3 9.61a34.33 34.33 0 0 0-6.89-.83c-3.24 0-6.28.91-9.13 2.73a19.1 19.1 0 0 0-6.88 7.47c-1.66 3.17-2.5 6.88-2.5 11.16v33.92H525.5v-63.58h8.54l1.19 11.62-1.86 10.93c2.05-3.48 7.04-17.41 10.28-19.94a18.15 18.15 0 0 1 11.5-3.8h0Z" aria-label="Door" transform="scale(1.12946 .88538)"/></g></svg>