<svg xmlns="http://www.w3.org/2000/svg" width="350.96" height="350.96"><rect width="351" height="351" x="-.02" y="-.02" fill="#f60" rx="15" ry="15"/><rect width="160.23" height="279.15" x="95.36" y="35.91" fill="none" stroke="#fff" stroke-dashoffset="32.13" stroke-linecap="round" stroke-linejoin="round" stroke-miterlimit="11.7" stroke-width="18.9" rx="18.9" ry="18.9"/><path stroke="#666" stroke-dashoffset="32.13" stroke-linecap="round" stroke-linejoin="round" stroke-miterlimit="11.7" stroke-width="21.92" d="M185.15 209.4h43.33v70.62a113.91 113.91 0 0 1-20.53 5.65 136.9 136.9 0 0 1-23.5 1.81c-12.98 0-23.92-2.96-32.8-8.88-8.9-6.05-15.68-14.59-20.36-25.62-4.56-11.16-6.84-24.35-6.84-39.55 0-15.06 2.58-28.11 7.72-39.14 5.15-11.03 12.52-19.57 22.1-25.63 9.71-6.18 21.4-9.28 35.09-9.28 7.01 0 13.62.74 19.82 2.22a79.77 79.77 0 0 1 17.54 6.26l-5.96 15.73a83.25 83.25 0 0 0-15.09-5.85 60.7 60.7 0 0 0-17.19-2.42c-14.97 0-26.66 5.18-35.08 15.54-8.3 10.36-12.46 24.55-12.46 42.57 0 11.44 1.58 21.6 4.74 30.47 3.27 8.74 8.36 15.6 15.26 20.58 6.9 4.84 15.96 7.26 27.2 7.26 5.49 0 10.17-.33 14.02-1a92.37 92.37 0 0 0 10.53-2.43v-42.77h-27.54V209.4Z" aria-label="G" style="shape-padding:.90503"/></svg>